<?xml version="1.0" encoding="utf-8"?>
<!-- Generator: Adobe Illustrator 27.4.1, SVG Export Plug-In . SVG Version: 6.00 Build 0)  -->
<svg version="1.1" id="Capa_1" xmlns="http://www.w3.org/2000/svg" xmlns:xlink="http://www.w3.org/1999/xlink" x="0px" y="0px"
	 viewBox="0 0 1080 1080" style="enable-background:new 0 0 1080 1080;" xml:space="preserve">
<style type="text/css">
	.st0{fill:#FFFFFF;}
</style>
<g>
	<path class="st0" d="M696.3,799.1c-6.6,2.1-13.9,0.2-18.3-5.1c-6.1-7.3-11.6-15.1-16.5-23.4l-3.5-6.1c-4.6-8.2-8.5-16.8-11.8-25.7
		c-2.4-6.5-0.4-13.8,4.8-18.4l16.8-15.3c9.3-8.5,14.4-20.5,14.4-33.1c0-0.1,0-0.1,0-0.2l0-0.2c0-12.7-5.3-24.8-14.8-33.4l-16.4-14.9
		c-5.2-4.6-7.2-11.9-4.8-18.4c3.3-8.9,7.3-17.4,11.8-25.7l3.5-6.1c4.9-8.2,10.5-16,16.5-23.4c4.4-5.4,11.8-7.2,18.3-5.1l18.6,5.9
		c13.5,4.3,28.1,2.8,40.4-4.1c0.1-0.1,0.2-0.1,0.3-0.2c9.9-5.5,16.9-15,19.3-26.1l5.3-24c1.5-6.8,6.7-12.2,13.6-13.3
		c10.3-1.8,21-2.7,31.8-2.7c10.9,0,21.5,0.9,31.8,2.6c6.9,1.1,12.1,6.5,13.6,13.3l0.1,0.3c5.2,23.9,19.4,44.7,39.2,59.1
		c0.1,0.1,0.2,0.1,0.3,0.2c1.7,1.3,3.9,1.7,6,1l0,0c0.4-0.1,0.7-0.4,0.8-0.8c18.6-55.9,28.9-116.9,28.9-180.9
		c0-70.6-12.4-137.7-35-198.2c-4.3-11.4-21-10.9-26.8-0.2C853.4,235.4,791.8,275,721,275H548.7c-130.2,0-240.4,85.3-277.9,203
		c55.7-28.2,118.5-43.9,185.1-43.9l145.2,0c12.9,0,24.4,8.9,26.7,21.5c3.1,16.7-9.8,31.5-26.1,31.5h-26.5H455.9
		c-27.5,0-54.2,3.1-80,8.9c-42.9,9.8-82.7,27.2-118.3,50.9C161.5,611,98.1,720.5,98.1,844.9l0,25.8c0,21,16,39,37,40.4
		c23.3,1.6,42.5-16.7,42.5-39.7v-26.5c0-80.7,34.3-153.3,89.1-204.1c32.8,125.1,146.6,217.4,282,217.4h1.7
		c72.1-0.4,139.6-24,197.8-65.1c0,0,0-0.1,0-0.1h0c-6.9-4.4-15.4-5.5-23.2-3L696.3,799.1z"/>
	<path class="st0" d="M976.9,713.9l-28-25.5c0.7-5.4,1.1-10.9,1.1-16.4c0-5.6-0.4-11.1-1.1-16.4l28-25.5c4.5-4,6.2-10.3,4.1-15.9
		l0.1-0.1c-2.8-7.7-6.3-15.1-10.2-22.2l-3-5.2c-4.3-7.1-9.1-13.9-14.3-20.2c-3.8-4.6-10.2-6.2-15.9-4.4l-32.7,10.4l-3.3,1.1
		c-8.7-6.7-18.3-12.2-28.5-16.4l-8.1-37c-1.3-5.9-5.8-10.6-11.8-11.5c-8.9-1.5-18.1-2.3-27.5-2.3c-9.4,0-18.6,0.8-27.5,2.3
		c-6,1-10.5,5.6-11.8,11.5l-8.1,37c-10.2,4.2-19.8,9.8-28.5,16.4L713.7,562c-5.7-1.8-12-0.3-15.9,4.4c-5.2,6.3-10,13.1-14.3,20.2
		l-3,5.2c-4,7.1-7.4,14.5-10.2,22.2c-2.1,5.6-0.3,11.9,4.1,15.9l28,25.5c-0.7,5.4-1.1,10.9-1.1,16.4c0,5.6,0.4,11.1,1.1,16.5
		l-28,25.5c-4.5,4-6.2,10.3-4.1,15.9c2.8,7.7,6.3,15.1,10.2,22.2l3,5.2c4.3,7.1,9.1,13.9,14.3,20.2c3.8,4.6,10.2,6.2,15.9,4.4
		l36-11.5c2.9,2.2,5.9,4.3,8.9,6.3c6.2,3.9,12.7,7.4,19.6,10.2l8.1,37c1.3,5.9,5.8,10.6,11.8,11.5c8.9,1.5,18.1,2.3,27.5,2.3
		s18.6-0.8,27.5-2.3c6-1,10.5-5.6,11.8-11.5l8.1-37c10.2-4.2,19.8-9.8,28.5-16.4l36.1,11.5c5.7,1.8,12,0.3,15.9-4.4
		c5.2-6.3,10-13.1,14.3-20.2l3-5.2c4-7.1,7.4-14.5,10.2-22.2C983.1,724.2,981.4,717.9,976.9,713.9z M825.7,723.8
		c-2.4,0-4.8-0.2-7.2-0.5c-25.2-3.5-44.6-25.1-44.6-51.3c0-28.6,23.2-51.8,51.8-51.8c20,0,37.4,11.4,46,28
		c3.7,7.1,5.8,15.2,5.8,23.8C877.5,700.6,854.3,723.8,825.7,723.8z"/>
</g>
</svg>
